<?xml version="1.0" encoding="utf-8"?>
<!DOCTYPE svg PUBLIC "-//W3C//DTD SVG 1.1//EN" "http://www.w3.org/Graphics/SVG/1.1/DTD/svg11.dtd">
<svg version="1.1" xmlns="http://www.w3.org/2000/svg" xmlns:xlink="http://www.w3.org/1999/xlink" x="0px" y="0px" viewBox="0 0 1000 1000" xml:space="preserve">
<g><path fill="current" d="M984.9,74.8L539.5,965.6c-7.9,16.2-21.1,24.4-39.7,24.4c-2.3,0-5.8-0.5-10.4-1.4c-10.2-2.3-18.5-7.5-24.7-15.7c-6.3-8.1-9.4-17.3-9.4-27.5V544.5H54.4c-10.2,0-19.4-3.1-27.5-9.4c-8.1-6.3-13.3-14.5-15.7-24.7c-2.3-10.2-1.4-20,2.8-29.2c4.2-9.3,10.9-16.2,20.2-20.9L925,14.9c6-3.2,12.8-4.9,20.2-4.9c12.5,0,23,4.4,31.3,13.2c6.9,6.5,11.2,14.5,12.9,24C991,56.8,989.5,66,984.9,74.8L984.9,74.8z"/></g>
</svg>